<svg xmlns="http://www.w3.org/2000/svg" viewBox="0 0 48 48" width="48" height="48">
  <circle cx="24" cy="24" r="22" fill="#eab308"/>
  <path d="M 24 10
           C 16 10, 11 16, 11 24
           C 11 32, 16 38, 24 38
           C 31 38, 36 33, 37 27
           L 30 27
           C 29 30, 27 32, 24 32
           C 19 32, 16 28.5, 16 24
           C 16 19.5, 19 16, 24 16
           C 27 16, 29.5 17.5, 31 20
           L 24 20
           L 24 25
           L 38 25
           C 38 16, 32 10, 24 10 Z"
        fill="#1e293b"/>
  <circle cx="19" cy="20" r="1.6" fill="#eab308"/>
  <path d="M 35 22 L 41 19 L 39 24 L 41 29 L 35 26 Z" fill="#f97316"/>
</svg>
